<svg xmlns="http://www.w3.org/2000/svg" version="1.1" xmlns:xlink="http://www.w3.org/1999/xlink" xmlns:svgjs="http://svgjs.dev/svgjs" width="1000" height="623" viewBox="0 0 1000 623"><g transform="matrix(1,0,0,1,-0.6060606060606233,0.2522267206477409)"><svg viewBox="0 0 396 247" data-background-color="#ffffff" preserveAspectRatio="xMidYMid meet" height="623" width="1000" xmlns="http://www.w3.org/2000/svg" xmlns:xlink="http://www.w3.org/1999/xlink"><g id="tight-bounds" transform="matrix(1,0,0,1,0.2400000000000091,-0.09999999999999432)"><svg viewBox="0 0 395.52 247.2" height="247.2" width="395.52"><g><svg viewBox="0 0 395.52 247.2" height="247.2" width="395.52"><g transform="matrix(1,0,0,1,0,44.63453590192644)"><svg viewBox="0 0 395.52 157.9309281961471" height="157.9309281961471" width="395.52"><g><svg viewBox="0 0 395.52 157.9309281961471" height="157.9309281961471" width="395.52"><g><svg viewBox="0 0 395.52 157.9309281961471" height="157.9309281961471" width="395.52"><g><svg viewBox="0 0 395.52 157.9309281961471" height="157.9309281961471" width="395.52"><g id="textblocktransform"><svg viewBox="0 0 395.52 157.9309281961471" height="157.9309281961471" width="395.52" id="textblock"><g><svg viewBox="0 0 395.52 157.9309281961471" height="157.9309281961471" width="395.52"><g transform="matrix(1,0,0,1,0,0)"><svg width="395.52" viewBox="-2.35 -41.5 151.59 58" height="157.9309281961471" data-palette-color="#000000"><path d="M22.8-31.2L22.8-31.2Q22.8-29.3 21.98-28.13 21.15-26.95 19.6-26.95L19.6-26.95Q18.2-26.95 17.1-28L17.1-28Q17.8-28.5 18.18-29.45 18.55-30.4 18.55-31.4L18.55-31.4Q18.55-32.95 17.55-33.95 16.55-34.95 14.5-34.95L14.5-34.95Q12.25-34.95 11.25-33.7 10.25-32.45 10.25-30.35L10.25-30.35Q10.25-27.9 11.43-26.35 12.6-24.8 14.35-23.58 16.1-22.35 18.13-21.25 20.15-20.15 21.9-18.65 23.65-17.15 24.83-15.03 26-12.9 26-9.6L26-9.6Q26-6.8 25.08-4.8 24.15-2.8 22.55-1.53 20.95-0.25 18.75 0.33 16.55 0.9 13.95 0.9L13.95 0.9Q11.65 0.9 9.43 0.43 7.2-0.05 5.48-1.13 3.75-2.2 2.7-3.98 1.65-5.75 1.65-8.3L1.65-8.3Q1.65-10 2.13-11.4 2.6-12.8 3.43-13.75 4.25-14.7 5.35-15.23 6.45-15.75 7.65-15.75L7.65-15.75Q8.25-15.75 8.95-15.6 9.65-15.45 10.35-15.08 11.05-14.7 11.65-14.05 12.25-13.4 12.6-12.45L12.6-12.45Q11.7-12.45 10.8-12.25 9.9-12.05 9.18-11.55 8.45-11.05 8-10.18 7.55-9.3 7.55-7.95L7.55-7.95Q7.55-5.35 9.15-4.23 10.75-3.1 13.15-3.1L13.15-3.1Q15.55-3.1 16.85-4.25 18.15-5.4 18.15-8.2L18.15-8.2Q18.15-10.8 17.07-12.6 16-14.4 14.35-15.75 12.7-17.1 10.83-18.28 8.95-19.45 7.3-20.83 5.65-22.2 4.58-24.05 3.5-25.9 3.5-28.6L3.5-28.6Q3.5-32.95 6.4-35.23 9.3-37.5 14.3-37.5L14.3-37.5Q15-37.5 16.43-37.38 17.85-37.25 19.28-36.63 20.7-36 21.75-34.73 22.8-33.45 22.8-31.2ZM41.55-15.1L41.55-15.1Q41.55-18.1 40.87-19.38 40.2-20.65 38.95-20.65L38.95-20.65Q38.2-20.65 37.67-20.25 37.15-19.85 36.8-19.2 36.45-18.55 36.25-17.73 36.05-16.9 36-16.05L36-16.05 36 0 28.8 0 28.8-25 36-25 36-22.4Q37.15-24.15 38.6-24.68 40.05-25.2 41.35-25.2L41.35-25.2Q42.75-25.2 44.02-24.75 45.3-24.3 46.27-23.23 47.25-22.15 47.8-20.38 48.35-18.6 48.35-16L48.35-16Q48.35-15.35 48.32-14.38 48.3-13.4 48.25-12.4 48.2-11.4 48.17-10.45 48.15-9.5 48.15-8.85L48.15-8.85Q48.15-6.7 48.6-5.63 49.05-4.55 50.6-4.55L50.6-4.55Q52.3-4.55 52.97-5.8 53.65-7.05 54.05-8.95L54.05-8.95 56.15-8.95Q55.75-5.95 54.95-4.13 54.15-2.3 53.15-1.33 52.15-0.35 51-0.03 49.85 0.3 48.75 0.3L48.75 0.3Q44.9 0.3 43.17-2.25 41.45-4.8 41.45-9.05L41.45-9.05Q41.45-9.5 41.47-10.33 41.5-11.15 41.5-12.05 41.5-12.95 41.52-13.78 41.55-14.6 41.55-15.1ZM67.45-25L74.65-25 74.65-8Q74.65-5.9 75.22-5.23 75.8-4.55 77.25-4.55L77.25-4.55Q78.7-4.55 79.67-5.8 80.65-7.05 80.8-8.95L80.8-8.95 82.9-8.95Q82.5-5.9 81.5-4.08 80.5-2.25 79.25-1.28 78-0.3 76.7 0 75.4 0.3 74.4 0.3L74.4 0.3Q71.75 0.3 70.37-0.93 69-2.15 68.45-4.3L68.45-4.3Q68.05-3.45 67.5-2.63 66.95-1.8 66.17-1.15 65.4-0.5 64.37-0.1 63.35 0.3 62 0.3L62 0.3Q60.4 0.3 58.85-0.3 57.3-0.9 56.02-2.25 54.75-3.6 53.97-5.83 53.2-8.05 53.2-11.3L53.2-11.3Q53.2-13.6 53.72-16.05 54.25-18.5 55.37-20.55 56.5-22.6 58.32-23.93 60.15-25.25 62.75-25.25L62.75-25.25Q63.35-25.25 64.05-25.18 64.75-25.1 65.4-24.83 66.05-24.55 66.6-24.03 67.15-23.5 67.45-22.6L67.45-22.6 67.45-25ZM67.45-8.95L67.45-20.2Q67.4-20.4 67.25-20.73 67.1-21.05 66.8-21.38 66.5-21.7 66.05-21.93 65.6-22.15 65-22.15L65-22.15Q63.8-22.15 62.92-21.13 62.05-20.1 61.52-18.57 61-17.05 60.75-15.23 60.5-13.4 60.5-11.75L60.5-11.75Q60.5-9.1 60.9-7.63 61.3-6.15 61.87-5.48 62.45-4.8 63.1-4.67 63.75-4.55 64.2-4.55L64.2-4.55Q64.75-4.55 65.32-4.83 65.9-5.1 66.37-5.65 66.85-6.2 67.15-7.03 67.45-7.85 67.45-8.95L67.45-8.95ZM80.34-26.85L87.54-26.85 87.54-23.1Q88.39-24 89.69-24.63 90.99-25.25 92.84-25.25L92.84-25.25Q94.54-25.25 96.07-24.6 97.59-23.95 98.77-22.53 99.94-21.1 100.64-18.75 101.34-16.4 101.34-13.05L101.34-13.05Q101.34-10.65 100.92-8.25 100.49-5.85 99.44-3.95 98.39-2.05 96.62-0.88 94.84 0.3 92.19 0.3L92.19 0.3Q90.29 0.3 89.19-0.23 88.09-0.75 87.54-1.45L87.54-1.45 87.54 10.7 80.34 12.5 80.34-26.85ZM89.79-4.05L89.79-4.05Q91.09-4.05 91.99-4.93 92.89-5.8 93.42-7.2 93.94-8.6 94.17-10.33 94.39-12.05 94.39-13.75L94.39-13.75Q94.39-16.5 93.92-18.1 93.44-19.7 92.79-20.48 92.14-21.25 91.52-21.45 90.89-21.65 90.54-21.65L90.54-21.65Q89.64-21.65 88.79-21.03 87.94-20.4 87.54-19.15L87.54-19.15 87.54-5.2Q87.79-4.8 88.34-4.42 88.89-4.05 89.79-4.05ZM103.74-25L110.94-25 110.94-8Q110.94-5.9 111.52-5.23 112.09-4.55 113.54-4.55L113.54-4.55Q114.99-4.55 115.97-5.8 116.94-7.05 117.09-8.95L117.09-8.95 119.19-8.95Q118.79-5.9 117.79-4.08 116.79-2.25 115.54-1.28 114.29-0.3 112.99 0 111.69 0.3 110.69 0.3L110.69 0.3Q106.84 0.3 105.29-1.83 103.74-3.95 103.74-7.45L103.74-7.45 103.74-25ZM103.19-31.65L103.19-31.65Q103.19-33.3 104.34-34.48 105.49-35.65 107.14-35.65L107.14-35.65Q108.79-35.65 109.97-34.48 111.14-33.3 111.14-31.65L111.14-31.65Q111.14-30 109.97-28.85 108.79-27.7 107.14-27.7L107.14-27.7Q105.49-27.7 104.34-28.85 103.19-30 103.19-31.65ZM134.44-12.15L135.59-8.9Q136.44-6.45 137.36-5.5 138.29-4.55 139.49-4.55L139.49-4.55Q140.99-4.55 141.96-5.73 142.94-6.9 143.14-8.95L143.14-8.95 145.24-8.95Q144.84-5.95 143.86-4.15 142.89-2.35 141.71-1.35 140.54-0.35 139.34-0.03 138.14 0.3 137.29 0.3L137.29 0.3Q134.79 0.3 132.84-1.75 130.89-3.8 129.14-8.4L129.14-8.4 123.99 0 120.39 0 128.04-11.4 126.04-17Q125.14-19.5 124.54-20.33 123.94-21.15 123.29-21.15L123.29-21.15Q122.54-21.15 121.81-20.4 121.09-19.65 120.49-18.15 119.89-16.65 119.51-14.35 119.14-12.05 119.14-8.95L119.14-8.95 117.04-8.95Q117.04-11.75 117.41-14.65 117.79-17.55 118.71-19.9 119.64-22.25 121.24-23.75 122.84-25.25 125.34-25.25L125.34-25.25Q126.84-25.25 127.94-24.73 129.04-24.2 129.81-23.33 130.59-22.45 131.14-21.4 131.69-20.35 132.04-19.3L132.04-19.3 133.34-15.4Q134.84-17.5 135.66-19.1 136.49-20.7 136.49-22L136.49-22Q136.49-22.45 136.44-22.7L136.44-22.7Q136.09-22.65 136.04-22.63 135.99-22.6 135.69-22.6L135.69-22.6Q134.09-22.6 133.34-23.5 132.59-24.4 132.59-25.45L132.59-25.45Q132.59-26.75 133.54-27.48 134.49-28.2 135.69-28.2L135.69-28.2Q137.09-28.2 138.29-27.13 139.49-26.05 139.49-23.65L139.49-23.65Q139.49-21.3 138.06-18.25 136.64-15.2 134.44-12.15L134.44-12.15Z" opacity="1" transform="matrix(1,0,0,1,0,0)" fill="#000000" class="undefined-text-0" data-fill-palette-color="primary" id="text-0"></path></svg></g></svg></g></svg></g></svg></g></svg></g></svg></g></svg></g></svg></g><defs></defs></svg><rect width="395.52" height="247.2" fill="none" stroke="none" visibility="hidden"></rect></g></svg></g></svg>